<svg width="114" height="39" viewBox="0 0 114 39" fill="none" xmlns="http://www.w3.org/2000/svg">
<rect width="114" height="39" fill="#D9D9D9"/>
<path d="M34.5234 8.9375V10.1797H26.168V8.9375H34.5234ZM35.6719 8.9375V26H34.2305V8.9375H35.6719ZM25.6523 8.9375H27.082L26.6484 16.8242C26.5703 18.1289 26.4688 19.2812 26.3438 20.2812C26.2266 21.2812 26.0625 22.1445 25.8516 22.8711C25.6406 23.5898 25.3633 24.1797 25.0195 24.6406C24.6836 25.1016 24.2656 25.4453 23.7656 25.6719C23.2734 25.8906 22.6758 26 21.9727 26H21.4805V24.7695L21.9141 24.7461C22.375 24.7305 22.7734 24.6406 23.1094 24.4766C23.4531 24.3125 23.7422 24.0508 23.9766 23.6914C24.2188 23.3242 24.418 22.832 24.5742 22.2148C24.7383 21.5977 24.8711 20.832 24.9727 19.918C25.082 19.0039 25.1719 17.9141 25.2422 16.6484L25.6523 8.9375ZM52.6406 16.5547V18.3828C52.6406 19.5781 52.4844 20.6602 52.1719 21.6289C51.8672 22.5898 51.4219 23.4141 50.8359 24.1016C50.2578 24.7891 49.5625 25.3164 48.75 25.6836C47.9375 26.0508 47.0234 26.2344 46.0078 26.2344C45.0156 26.2344 44.1094 26.0508 43.2891 25.6836C42.4766 25.3164 41.7773 24.7891 41.1914 24.1016C40.6055 23.4141 40.1523 22.5898 39.832 21.6289C39.5117 20.6602 39.3516 19.5781 39.3516 18.3828V16.5547C39.3516 15.3594 39.5078 14.2812 39.8203 13.3203C40.1406 12.3516 40.5938 11.5234 41.1797 10.8359C41.7656 10.1484 42.4648 9.62109 43.2773 9.25391C44.0898 8.88672 44.9922 8.70312 45.9844 8.70312C47 8.70312 47.9141 8.88672 48.7266 9.25391C49.5391 9.62109 50.2383 10.1484 50.8242 10.8359C51.4102 11.5234 51.8594 12.3516 52.1719 13.3203C52.4844 14.2812 52.6406 15.3594 52.6406 16.5547ZM51.2109 18.3828V16.5312C51.2109 15.5234 51.0938 14.6172 50.8594 13.8125C50.6328 13.0078 50.293 12.3203 49.8398 11.75C49.3945 11.1797 48.8477 10.7422 48.1992 10.4375C47.5508 10.1328 46.8125 9.98047 45.9844 9.98047C45.1797 9.98047 44.457 10.1328 43.8164 10.4375C43.1758 10.7422 42.6289 11.1797 42.1758 11.75C41.7305 12.3203 41.3867 13.0078 41.1445 13.8125C40.9102 14.6172 40.793 15.5234 40.793 16.5312V18.3828C40.793 19.3984 40.9102 20.3125 41.1445 21.125C41.3867 21.9297 41.7344 22.6211 42.1875 23.1992C42.6406 23.7695 43.1875 24.207 43.8281 24.5117C44.4766 24.8164 45.2031 24.9688 46.0078 24.9688C46.8438 24.9688 47.582 24.8164 48.2227 24.5117C48.8633 24.207 49.4062 23.7695 49.8516 23.1992C50.2969 22.6211 50.6328 21.9297 50.8594 21.125C51.0938 20.3125 51.2109 19.3984 51.2109 18.3828ZM66.5742 8.9375V10.1797H57.7266V26H56.2969V8.9375H66.5742ZM81.3281 16.5547V18.3828C81.3281 19.5781 81.1719 20.6602 80.8594 21.6289C80.5547 22.5898 80.1094 23.4141 79.5234 24.1016C78.9453 24.7891 78.25 25.3164 77.4375 25.6836C76.625 26.0508 75.7109 26.2344 74.6953 26.2344C73.7031 26.2344 72.7969 26.0508 71.9766 25.6836C71.1641 25.3164 70.4648 24.7891 69.8789 24.1016C69.293 23.4141 68.8398 22.5898 68.5195 21.6289C68.1992 20.6602 68.0391 19.5781 68.0391 18.3828V16.5547C68.0391 15.3594 68.1953 14.2812 68.5078 13.3203C68.8281 12.3516 69.2812 11.5234 69.8672 10.8359C70.4531 10.1484 71.1523 9.62109 71.9648 9.25391C72.7773 8.88672 73.6797 8.70312 74.6719 8.70312C75.6875 8.70312 76.6016 8.88672 77.4141 9.25391C78.2266 9.62109 78.9258 10.1484 79.5117 10.8359C80.0977 11.5234 80.5469 12.3516 80.8594 13.3203C81.1719 14.2812 81.3281 15.3594 81.3281 16.5547ZM79.8984 18.3828V16.5312C79.8984 15.5234 79.7812 14.6172 79.5469 13.8125C79.3203 13.0078 78.9805 12.3203 78.5273 11.75C78.082 11.1797 77.5352 10.7422 76.8867 10.4375C76.2383 10.1328 75.5 9.98047 74.6719 9.98047C73.8672 9.98047 73.1445 10.1328 72.5039 10.4375C71.8633 10.7422 71.3164 11.1797 70.8633 11.75C70.418 12.3203 70.0742 13.0078 69.832 13.8125C69.5977 14.6172 69.4805 15.5234 69.4805 16.5312V18.3828C69.4805 19.3984 69.5977 20.3125 69.832 21.125C70.0742 21.9297 70.4219 22.6211 70.875 23.1992C71.3281 23.7695 71.875 24.207 72.5156 24.5117C73.1641 24.8164 73.8906 24.9688 74.6953 24.9688C75.5312 24.9688 76.2695 24.8164 76.9102 24.5117C77.5508 24.207 78.0938 23.7695 78.5391 23.1992C78.9844 22.6211 79.3203 21.9297 79.5469 21.125C79.7812 20.3125 79.8984 19.3984 79.8984 18.3828Z" fill="black"/>
</svg>
